HIERARCHY
ROOT hip
{
  OFFSET 0 0 0
  CHANNELS 6 Xposition Yposition Zposition Zrotation Yrotation Xrotation
  JOINT abdomen
  {
    OFFSET 0 20.6881 -0.73152
    CHANNELS 3 Zrotation Xrotation Yrotation
    JOINT chest
    {
      OFFSET 0 11.7043 -0.48768
      CHANNELS 3 Zrotation Xrotation Yrotation
      JOINT neck
      {
        OFFSET 0 22.1894 -2.19456
        CHANNELS 3 Zrotation Xrotation Yrotation
        JOINT head
        {
          OFFSET -0.24384 7.07133 1.2192
          CHANNELS 3 Zrotation Xrotation Yrotation
          JOINT leftEye
          {
            OFFSET 4.14528 8.04674 8.04672
            CHANNELS 3 Zrotation Xrotation Yrotation
            End Site
            {
              OFFSET 1 0 0
            }
          }
          JOINT rightEye
          {
            OFFSET -3.6576 8.04674 8.04672
            CHANNELS 3 Zrotation Xrotation Yrotation
            End Site
            {
              OFFSET 1 0 0
            }
          }
        }
      }
      JOINT rCollar
      {
        OFFSET -2.68224 19.2634 -4.8768
        CHANNELS 3 Zrotation Xrotation Yrotation
        JOINT rShldr
        {
          OFFSET -8.77824 -1.95073 1.46304
          CHANNELS 3 Zrotation Xrotation Yrotation
          JOINT rForeArm
          {
            OFFSET -28.1742 -1.7115 0.48768
            CHANNELS 3 Zrotation Xrotation Yrotation
            JOINT rHand
            {
              OFFSET -22.5879 0.773209 7.07136
              CHANNELS 3 Zrotation Xrotation Yrotation
              JOINT rThumb1
              {
                OFFSET -1.2192 -0.487915 3.41376
                CHANNELS 3 Zrotation Xrotation Yrotation
                JOINT rThumb2
                {
                  OFFSET -3.37035 -0.52449 3.41376
                  CHANNELS 3 Zrotation Xrotation Yrotation
                  End Site
                  {
                    OFFSET -1.78271 -1.18214 1.43049
                  }
                }
              }
              JOINT rIndex1
              {
                OFFSET -7.75947 0.938293 5.60832
                CHANNELS 3 Zrotation Xrotation Yrotation
                JOINT rIndex2
                {
                  OFFSET -2.54057 -0.884171 1.56538
                  CHANNELS 3 Zrotation Xrotation Yrotation
                  End Site
                  {
                    OFFSET -1.62519 -0.234802 1.16502
                  }
                }
              }
              JOINT rMid1
              {
                OFFSET -8.24714 1.18213 3.41376
                CHANNELS 3 Zrotation Xrotation Yrotation
                JOINT rMid2
                {
                  OFFSET -3.10165 -0.590103 1.0647
                  CHANNELS 3 Zrotation Xrotation Yrotation
                  End Site
                  {
                    OFFSET -2.48547 -0.328903 0.83742
                  }
                }
              }
              JOINT rRing1
              {
                OFFSET -8.82822 0.546677 1.51678
                CHANNELS 3 Zrotation Xrotation Yrotation
                JOINT rRing2
                {
                  OFFSET -2.60934 -0.819778 -0.0198488
                  CHANNELS 3 Zrotation Xrotation Yrotation
                  End Site
                  {
                    OFFSET -2.33842 -0.294052 0.168128
                  }
                }
              }
              JOINT rPinky1
              {
                OFFSET -8.27202 -0.0477905 -0.4584
                CHANNELS 3 Zrotation Xrotation Yrotation
                JOINT rPinky2
                {
                  OFFSET -1.82734 -0.647385 -0.700984
                  CHANNELS 3 Zrotation Xrotation Yrotation
                  End Site
                  {
                    OFFSET -1.69225 -0.51767 -0.607171
                  }
                }
              }
            }
          }
        }
      }
      JOINT lCollar
      {
        OFFSET 2.68224 19.2634 -4.8768
        CHANNELS 3 Zrotation Xrotation Yrotation
        JOINT lShldr
        {
          OFFSET 8.77824 -1.95073 1.46304
          CHANNELS 3 Zrotation Xrotation Yrotation
          JOINT lForeArm
          {
            OFFSET 28.1742 -1.7115 0.48768
            CHANNELS 3 Zrotation Xrotation Yrotation
            JOINT lHand
            {
              OFFSET 22.5879 0.773209 7.07136
              CHANNELS 3 Zrotation Xrotation Yrotation
              JOINT lThumb1
              {
                OFFSET 1.2192 -0.487915 3.41376
                CHANNELS 3 Zrotation Xrotation Yrotation
                JOINT lThumb2
                {
                  OFFSET 3.37035 -0.52449 3.41376
                  CHANNELS 3 Zrotation Xrotation Yrotation
                  End Site
                  {
                    OFFSET 1.78271 -1.18214 1.43049
                  }
                }
              }
              JOINT lIndex1
              {
                OFFSET 7.75947 0.938293 5.60832
                CHANNELS 3 Zrotation Xrotation Yrotation
                JOINT lIndex2
                {
                  OFFSET 2.54057 -0.884171 1.56538
                  CHANNELS 3 Zrotation Xrotation Yrotation
                  End Site
                  {
                    OFFSET 1.62519 -0.234802 1.16502
                  }
                }
              }
              JOINT lMid1
              {
                OFFSET 8.24714 1.18213 3.41376
                CHANNELS 3 Zrotation Xrotation Yrotation
                JOINT lMid2
                {
                  OFFSET 3.10165 -0.590103 1.0647
                  CHANNELS 3 Zrotation Xrotation Yrotation
                  End Site
                  {
                    OFFSET 2.48547 -0.328903 0.83742
                  }
                }
              }
              JOINT lRing1
              {
                OFFSET 8.82822 0.546677 1.51678
                CHANNELS 3 Zrotation Xrotation Yrotation
                JOINT lRing2
                {
                  OFFSET 2.60934 -0.819778 -0.0198488
                  CHANNELS 3 Zrotation Xrotation Yrotation
                  End Site
                  {
                    OFFSET 2.33842 -0.294052 0.168128
                  }
                }
              }
              JOINT lPinky1
              {
                OFFSET 8.27202 -0.0477905 -0.4584
                CHANNELS 3 Zrotation Xrotation Yrotation
                JOINT lPinky2
                {
                  OFFSET 1.82734 -0.647385 -0.700984
                  CHANNELS 3 Zrotation Xrotation Yrotation
                  End Site
                  {
                    OFFSET 1.69225 -0.51767 -0.607171
                  }
                }
              }
            }
          }
        }
      }
    }
  }
  JOINT rButtock
  {
    OFFSET -8.77824 4.35084 1.2192
    CHANNELS 3 Zrotation Xrotation Yrotation
    JOINT rThigh
    {
      OFFSET 0 -1.70687 -2.19456
      CHANNELS 3 Zrotation Xrotation Yrotation
      JOINT rShin
      {
        OFFSET 0 -36.8199 0.73152
        CHANNELS 3 Zrotation Xrotation Yrotation
        JOINT rFoot
        {
          OFFSET 0.73152 -45.1104 -5.12064
          CHANNELS 3 Zrotation Xrotation Yrotation
          End Site
          {
            OFFSET -1.1221 -3.69964 12.103
          }
        }
      }
    }
  }
  JOINT lButtock
  {
    OFFSET 8.77824 4.35084 1.2192
    CHANNELS 3 Zrotation Xrotation Yrotation
    JOINT lThigh
    {
      OFFSET 0 -1.70687 -2.19456
      CHANNELS 3 Zrotation Xrotation Yrotation
      JOINT lShin
      {
        OFFSET 0 -36.8199 0.73152
        CHANNELS 3 Zrotation Xrotation Yrotation
        JOINT lFoot
        {
          OFFSET -0.73152 -45.1104 -5.12064
          CHANNELS 3 Zrotation Xrotation Yrotation
          End Site
          {
            OFFSET 1.1221 -3.69964 12.103
          }
        }
      }
    }
  }
}
MOTION
Frames:	8
Frame Time:	0.00833333
-19.361700000000003 82.8478 -11.6499 5.442338 82.32522 14.882723 -0.26908 -7.458067 -177.722532 1.598116 -5.053177 -176.162184 13.570998 16.883027 93.111421 -17.065779 21.978347 -91.481953 0.003107 -0.0 -0.001391 -0.003136 -0.0 0.003704 4.239843 -44.742742 -8.647425 -74.35097 -28.789264 -122.238761 -170.907345 0.79699 -75.294115 -7.484002 -10.044323 -3.838791 -171.603248 -9.286327 89.949827 -135.337353 10.676965 67.485312 -0.966396 1.551543 0.554189 -175.367841 -31.44038 107.352552 -10.97509 25.789948 7.640431 -179.604679 -48.742926 141.438217 -0.059295 -3.506735 -1.103685 -155.565317 -8.263436 172.856964 26.98919 80.121829 10.121188 14.376611 41.892077 7.26573 -4.208695 -43.443087 8.384436 -133.469181 52.190713 70.016442 -172.655964 10.609551 -43.921523 -179.971603 -1.379136 -143.473841 78.0305 38.688799 -42.41292 170.441521 -42.542512 -80.199685 162.782149 -37.70707 -122.639824 61.054072 57.235272 -46.980801 170.279522 -36.72329 -145.342203 -5.100009 -5.880589 0.342869 0.020526 -1.725933 0.543242 155.97434 -13.748912 -173.487217 86.310277 -50.444041 84.675517 9.613092 -25.795964 12.475105 -179.999035 75.74899 -0.000794 157.313333 42.399145 15.40374 -10.327786 50.578932 -95.594328 90.201438 61.765802 1.342123 -179.9983 75.750803 -0.001399 175.252109 48.255767 -133.210991 -19.052913 -29.602455 17.375014 66.128036 -36.327532 142.036486
-19.4428 83.2172 -11.3877 14.57484 84.541205 24.018697 0.165685 -7.624013 -161.763143 0.528087 -5.418532 166.06677 12.953707 21.203676 117.629911 -10.341862 28.345213 -118.096335 -0.00529 0.0 -0.000757 0.000363 -0.0 -0.00019 -130.419198 54.548623 134.28666 73.213086 -20.981523 97.528144 -142.404355 -3.268115 30.281353 173.245206 -40.890588 143.568234 -78.030619 38.689387 42.412658 -118.99667 -16.353709 79.052198 10.281845 -18.182718 -4.583544 -164.485416 -20.969685 110.173931 -6.646513 17.108956 4.325071 179.065763 -51.028789 140.757526 -78.571003 -72.042183 -95.867349 14.732603 1.734852 -4.510855 0.099526 0.2585 0.089237 -147.756822 13.055605 -144.027661 -2.459721 -18.216307 3.669787 90.498329 -15.348709 165.44952 -178.144496 -45.93266 82.585296 9.943725 17.24362 0.219246 -1.594455 -1.581666 0.223657 126.316591 -19.094753 -113.10609 108.42744 34.161605 -91.743508 -94.56926 -67.574844 -45.979538 36.035687 51.723159 -29.832423 -11.576243 -24.900437 1.459008 0.021276 -1.725029 0.543297 -9.218379 14.191303 -1.883586 26.428163 -38.76228 25.475124 -76.812523 86.225035 37.477429 -179.990756 75.749577 -0.009538 156.248772 43.970049 16.643624 -4.101104 38.025233 -10.577596 114.603446 -32.119497 0.701605 -179.930103 75.750501 -0.053874 174.062839 50.739726 4.528937 5.848924 25.511483 54.653467 144.279378 -59.27752 42.983776
-19.3722 83.43390000000001 -10.7415 17.527094 86.573484 26.602016 -0.618023 -7.913478 -180.0 1.283856 -5.324338 -177.269417 -7.810739 17.217703 -72.296599 18.017658 -5.015518 73.12168 -0.00104 -0.0 0.002946 -0.00053 0.0 -0.002761 -0.087942 0.524974 0.116747 94.215162 86.179903 -15.139312 -176.934141 66.635538 34.257752 -173.903964 0.98874 142.216288 -166.631164 -4.304965 89.771374 -127.372524 9.931781 61.214142 10.281479 -18.182616 -4.58679 -165.77183 -22.718458 109.937676 0.541655 -1.589966 -0.293653 -163.619125 -5.805216 143.460039 0.000827 0.022461 0.008145 10.768788 -6.943025 -0.915597 -128.9613 -23.654849 -126.607434 -80.196698 -52.796908 -80.38313 -0.070323 -0.427928 0.094204 91.338735 -13.679195 -175.043966 -151.616465 -49.333992 100.938718 17.443724 34.333158 -3.754637 166.745626 -4.418445 -89.779153 134.57957 8.421197 -66.146208 -23.268206 -41.070627 5.6874 0.595262 22.076921 -3.876995 160.674123 -6.66793 -143.244268 166.326224 -13.980865 -143.684244 0.020694 -1.725814 0.544011 -10.444181 0.338776 0.026129 156.379436 53.733556 150.121698 137.494943 -14.466895 133.40084 179.982077 75.749293 0.012263 156.026935 45.540966 17.270516 3.27951 35.441373 43.328645 -121.332828 44.69609 44.110072 -0.001493 -0.000619 -0.002239 -3.517833 -24.246697 6.970134 -2.937461 23.814669 -70.085651 76.026158 43.996283 12.437357
-19.5884 83.588 -10.309 35.682977 88.257606 45.030234 -0.542346 -3.24866 -0.053298 -1.165343 0.853151 1.326255 12.836534 18.893321 105.207923 -14.754614 24.476445 -105.565225 0.004503 0.0 0.000552 -0.001902 0.0 -2e-06 -143.619952 38.232982 148.079685 71.909588 -36.633896 109.277674 -6.896728 -42.815565 106.799673 -6.095569 -10.481277 -3.645111 -158.449336 3.763201 88.550433 -135.396528 3.827813 65.955702 -152.105786 -18.556157 121.368371 -4.924877 28.154232 -1.871805 -145.28675 29.523757 132.691457 -4.573972 20.430008 4.520039 -0.013256 -1.323318 -0.414829 -75.578294 78.82314 89.086397 -152.503806 38.5229 -147.798828 -21.703828 -36.799355 -22.743732 153.050183 10.02357 -158.668403 -119.370229 -7.066355 -166.9448 -178.750314 -29.193693 -39.290964 -178.668795 -7.6068 -143.47226 85.829089 38.629946 -47.955707 1.546778 -15.431119 -25.984326 8.572312 12.508644 -5.450253 12.842987 27.217896 -9.277389 0.221492 0.638127 -0.122964 161.236653 1.341746 -142.605852 145.112117 -0.627489 178.93242 150.101488 78.828997 -164.597037 -0.550418 1.455725 -0.508693 147.871316 13.358756 144.094168 0.002338 0.00038 0.001169 -16.966848 -25.227262 -35.596611 -28.658644 28.415338 -50.10753 -29.103046 -69.990677 67.511546 -179.993747 75.748278 -0.004278 176.771054 52.029948 0.0 -9.054721 22.887716 -72.754019 22.195379 -4.812837 71.213462
-19.5354 83.6995 -9.9919 111.355583 88.201076 120.170535 -0.477205 -3.330163 -0.047572 -1.090327 1.154159 0.206629 -5.487422 24.772605 -121.649506 23.811596 12.581567 117.754192 0.003264 -0.0 -0.001816 -0.001746 0.0 -0.002297 4.225855 -44.097173 -8.514793 70.868596 18.512852 -42.568256 -179.872813 -20.034677 28.172976 -174.595826 1.680135 142.245703 51.059551 -41.204299 12.856244 -128.117662 16.998496 102.9706 -108.427819 34.162473 91.744015 -5.338418 19.175163 -1.901339 -89.834371 60.701505 81.263111 -163.821052 -7.043961 143.382052 -73.164585 -72.141688 -90.198489 -149.958537 -25.6919 179.881355 -124.848861 -29.036799 -122.6201 -24.82052 -40.533679 -26.79479 153.589509 -75.693283 178.259296 -8.225003 13.047659 65.199578 95.278903 39.42116 137.264256 -11.722561 -46.089481 -2.233346 121.364847 30.33 -71.95818 121.728043 -8.877957 -66.014334 141.998896 -0.61394 -116.931495 -9.230773 0.591217 9.368979 0.057871 0.167809 -0.032406 172.249303 -31.837588 -144.078017 0.020579 -1.726067 0.542368 156.257315 -21.702505 -174.400154 12.376168 -24.157715 11.757939 23.920655 -41.347144 25.124863 0.000104 0.000912 5.2e-05 -15.979832 -25.896048 -150.149819 -26.153711 -25.276646 -143.060817 -15.812999 -12.357487 -105.392524 179.999357 75.74873 0.000529 178.387235 52.63859 0.0 -8.86633 26.859686 -118.746606 -85.168759 79.098316 -178.932245
-19.8047 83.82260000000001 -9.418899999999999 143.663661 87.983666 152.657544 -0.317804 -3.431477 -5.294526 -1.396591 1.259805 4.643772 10.572448 12.181367 66.49716 -19.942126 9.886912 -67.747749 0.000373 0.0 0.00148 0.000373 0.0 0.00148 3.268946 -26.755753 -5.242455 -97.854104 -19.512454 -152.855994 -164.797276 -0.278482 -64.107498 -4.312952 -12.208744 -3.417054 -99.395129 37.101495 57.491706 -14.454358 -14.398559 29.470355 60.461653 -70.523646 15.711739 17.126898 -0.557775 -5.484752 173.123541 -66.297873 137.613105 2.487082 1.60932 0.480654 -0.015194 -1.323071 -0.416392 -155.306661 -1.114448 171.98218 -146.209343 15.406068 -142.72909 1.412962 -2.039745 -2.639785 13.016596 41.249901 -14.799686 56.320392 20.416135 -120.08304 -17.090325 76.656274 151.26675 179.673763 -5.072137 -143.275779 -93.028249 -51.083832 -40.501168 137.908403 18.437098 -99.578142 108.428064 34.160415 -91.742275 -94.569503 -67.574278 -45.979232 125.645121 49.840031 -115.273728 -29.942889 -60.086708 -6.874511 -0.004193 1.854232 -0.583741 154.568132 -63.969192 178.596806 138.444121 -6.229635 135.658481 126.284385 -29.67713 124.185839 -0.000447 0.000389 -0.000447 -15.719282 -24.960519 180.0 -9.837617 -34.830259 -94.142692 -149.925072 -7.670537 131.220697 -179.985844 75.749253 -0.010911 179.535082 53.146022 2.319091 -6.102245 19.131139 -56.329443 -176.916506 -26.198166 -58.739674
-19.7842 83.83890000000001 -8.982800000000001 154.758406 86.678101 163.500526 -0.762543 -8.309729 -180.0 1.102632 -6.269614 178.925774 -8.49895 16.645543 -70.819771 18.923516 -3.806795 69.690655 0.002809 -0.0 -0.00496 0.003477 -0.0 -0.004981 0.070593 -0.427869 -0.094546 -101.064622 -14.414566 -179.45697 -0.600397 3.09684 -150.711602 179.807712 -10.789015 143.378385 -166.508544 -4.180321 89.761275 -90.545159 8.017654 35.687983 -140.165483 2.326893 115.878363 131.107171 -68.912021 76.316888 6.534583 -20.414708 -2.717378 17.871553 -42.127206 -0.149704 0.004224 0.918079 0.288106 -134.617455 -83.260401 -156.736614 12.633698 42.93363 10.535277 -157.250216 44.151758 -148.821866 -3.540237 -62.053051 13.04073 -90.324098 24.080467 53.534293 39.425088 14.244175 -127.331508 -6.891914 -37.599877 0.524947 176.927282 -14.532652 -89.658426 145.705369 9.22061 -76.374989 -139.297154 -74.447243 -85.24559 82.623791 53.854018 -69.052972 0.571481 1.648155 -0.323478 150.246708 27.926801 -136.085508 145.120537 0.310326 179.225259 149.426352 -38.763222 171.994976 26.563325 -38.861845 25.604117 4.648507 -17.952722 7.23922 -179.836016 75.747905 -0.126387 158.147118 48.803007 -180.0 7.445961 -36.84019 -43.49208 -168.238275 14.240286 147.362496 0.0 0.000692 -0.001013 0.175804 -24.448749 179.645886 -5.135991 -23.110111 -113.362687 -170.284731 -3.40683 70.386684
-19.974 83.8394 -8.4106 159.931457 85.876782 168.588538 -1.079375 -3.659132 -0.113782 -1.219072 1.570839 -1.263236 7.79662 9.710493 46.241996 -18.187086 1.169701 -49.556003 0.003205 -0.0 -0.003452 0.002866 0.0 0.002267 -155.614029 -4.236275 161.991426 130.267931 -24.09456 172.47865 -10.808549 -35.759837 110.881553 -3.673458 -7.093229 -2.534571 -0.491154 0.484842 0.07769 11.221657 -16.001937 -8.330204 -162.920337 -37.929107 122.629074 -178.881525 -47.596351 112.966482 7.904304 -24.807601 -3.012513 -129.328072 52.112414 118.466793 0.000442 -0.018697 -0.004619 -155.412373 -1.110502 171.982356 -157.331371 57.246369 -150.51102 -94.76503 -50.436838 -93.146239 59.825574 -86.722178 81.626338 81.073391 -20.669204 99.231772 -42.313223 14.645692 160.298423 164.994399 33.846005 -136.579509 -9.38941 -9.381343 0.681654 152.934707 -70.110827 -127.861969 46.208995 39.652028 -36.319086 -77.642899 -61.323554 -31.714762 10.976873 25.789698 -7.640135 163.23241 -4.944253 -143.34757 72.349595 72.976439 -90.217206 -5.86727 1.800318 4.253989 157.327032 57.246007 150.515134 4.588972 -13.805684 6.775971 179.951487 75.750152 0.037392 158.255929 51.845363 17.145155 1.059948 38.643643 164.35424 -106.739867 27.858289 -169.411141 179.951487 75.750152 0.037392 -179.347987 51.682382 180.0 -5.858383 -24.98142 -89.676207 -28.427828 -7.978648 -109.643852
